HIERARCHY
ROOT hips
{
  OFFSET 0 10.6860622 2.3727825e-15
  CHANNELS 6 Xposition Yposition Zposition Yrotation Xrotation Zrotation
  JOINT leftUpperLeg
  {
    OFFSET 0.6642549969 -0.9402397400000004 0
    CHANNELS 3 Yrotation Xrotation Zrotation
    JOINT leftLowerLeg
    {
      OFFSET 0 -3.997221335632195 0
      CHANNELS 3 Yrotation Xrotation Zrotation
      JOINT leftFoot
      {
        OFFSET -0.13777839790000004 -4.6145792000000005 -0.22186036399999998
        CHANNELS 3 Yrotation Xrotation Zrotation
        JOINT leftToes
        {
          OFFSET -0.03777410834999995 -0.9130806927000008 0.85230013
          CHANNELS 3 Yrotation Xrotation Zrotation
          End Site
          {
            OFFSET -0.03777410834999995 -0.9130806927000008 0.85230013
          }
        }
      }
    }
  }
  JOINT rightUpperLeg
  {
    OFFSET -0.6642778626 -0.9402397400000004 0
    CHANNELS 3 Yrotation Xrotation Zrotation
    JOINT rightLowerLeg
    {
      OFFSET 0 -3.997221452859387 0
      CHANNELS 3 Yrotation Xrotation Zrotation
      JOINT rightFoot
      {
        OFFSET 0.1377926176 -4.6145792000000005 -0.22185782299999995
        CHANNELS 3 Yrotation Xrotation Zrotation
        JOINT rightToes
        {
          OFFSET 0.037780746850000047 -0.9130806927000008 0.85230167
          CHANNELS 3 Yrotation Xrotation Zrotation
          End Site
          {
            OFFSET 0.037780746850000047 -0.9130806927000008 0.85230167
          }
        }
      }
    }
  }
  JOINT spine
  {
    OFFSET 0 0.13988381660000015 0
    CHANNELS 3 Yrotation Xrotation Zrotation
    JOINT chest
    {
      OFFSET 0 0.6191039003973773 0
      CHANNELS 3 Yrotation Xrotation Zrotation
      JOINT upperChest
      {
        OFFSET 0 0.9855186130586943 0
        CHANNELS 3 Yrotation Xrotation Zrotation
        JOINT leftShoulder
        {
          OFFSET 0.1807663869 1.5087829790000005 0
          CHANNELS 3 Yrotation Xrotation Zrotation
          JOINT leftUpperArm
          {
            OFFSET 0.5985063006419806 0 0
            CHANNELS 3 Yrotation Xrotation Zrotation
            JOINT leftLowerArm
            {
              OFFSET 2.2993332369501065 0 0
              CHANNELS 3 Yrotation Xrotation Zrotation
              JOINT leftHand
              {
                OFFSET 2.395047042602395 0 0
                CHANNELS 3 Yrotation Xrotation Zrotation
                JOINT leftIndexProximal
                {
                  OFFSET 0.5766295810000004 0.04556643899499946 0.17265095988184
                  CHANNELS 3 Yrotation Xrotation Zrotation
                  JOINT leftIndexIntermediate
                  {
                    OFFSET 0.2957229000000008 -0.019352197700001517 -0.007932640616999987
                    CHANNELS 3 Yrotation Xrotation Zrotation
                    JOINT leftIndexDistal
                    {
                      OFFSET 0.19008243099999922 -0.012484908149998475 -0.002786250786000012
                      CHANNELS 3 Yrotation Xrotation Zrotation
                      End Site
                      {
                        OFFSET 0.19008243099999922 -0.012484908149998475 -0.002786250786000012
                      }
                    }
                  }
                }
                JOINT leftMiddleProximal
                {
                  OFFSET 0.5834975091000001 0.0524350405149987 0.02204081888183999
                  CHANNELS 3 Yrotation Xrotation Zrotation
                  JOINT leftMiddleIntermediate
                  {
                    OFFSET 0.33880573540000003 -0.019871473270000717 -0.00000971183179999946
                    CHANNELS 3 Yrotation Xrotation Zrotation
                    JOINT leftMiddleDistal
                    {
                      OFFSET 0.20676022730000088 -0.012221336379999448 0.0001471936708000235
                      CHANNELS 3 Yrotation Xrotation Zrotation
                      End Site
                      {
                        OFFSET 0.20676022730000088 -0.012221336379999448 0.0001471936708000235
                      }
                    }
                  }
                }
                JOINT leftLittleProximal
                {
                  OFFSET 0.5344154683999995 -0.012880921405001189 -0.24414037221816004
                  CHANNELS 3 Yrotation Xrotation Zrotation
                  JOINT leftLittleIntermediate
                  {
                    OFFSET 0.21758961730000093 -0.011650919939999227 0.011893592810000034
                    CHANNELS 3 Yrotation Xrotation Zrotation
                    JOINT leftLittleDistal
                    {
                      OFFSET 0.1475273964999999 -0.008152365682999818 0.006001092492999946
                      CHANNELS 3 Yrotation Xrotation Zrotation
                      End Site
                      {
                        OFFSET 0.1475273964999999 -0.008152365682999818 0.006001092492999946
                      }
                    }
                  }
                }
                JOINT leftRingProximal
                {
                  OFFSET 0.5799399463000003 0.026911854694997794 -0.12150566991816003
                  CHANNELS 3 Yrotation Xrotation Zrotation
                  JOINT leftRingIntermediate
                  {
                    OFFSET 0.26167887460000006 -0.013480186499999602 0.010996293000000053
                    CHANNELS 3 Yrotation Xrotation Zrotation
                    JOINT leftRingDistal
                    {
                      OFFSET 0.17667108799999987 -0.008990287899999228 0.0055541023999999065
                      CHANNELS 3 Yrotation Xrotation Zrotation
                      End Site
                      {
                        OFFSET 0.17667108799999987 -0.008990287899999228 0.0055541023999999065
                      }
                    }
                  }
                }
                JOINT leftThumbProximal
                {
                  OFFSET 0.11018806699999972 -0.09448718900500053 0.17047963138184
                  CHANNELS 3 Yrotation Xrotation Zrotation
                  JOINT leftThumbIntermediate
                  {
                    OFFSET 0.31062601459999983 -0.08126270900000132 0.15443142000000007
                    CHANNELS 3 Yrotation Xrotation Zrotation
                    JOINT leftThumbDistal
                    {
                      OFFSET 0.21627175790000086 -0.08833193599999878 0.018771167799999988
                      CHANNELS 3 Yrotation Xrotation Zrotation
                      End Site
                      {
                        OFFSET 0.21627175790000086 -0.08833193599999878 0.018771167799999988
                      }
                    }
                  }
                }
              }
            }
          }
        }
        JOINT neck
        {
          OFFSET 0 1.5463305265074576 0
          CHANNELS 3 Yrotation Xrotation Zrotation
          JOINT head
          {
            OFFSET 0 0.8456443600000344 0
            CHANNELS 3 Yrotation Xrotation Zrotation
            JOINT leftEye
            {
              OFFSET 0.30408573140000006 0.5104519199999995 0.1276382305
              CHANNELS 3 Yrotation Xrotation Zrotation
              End Site
              {
                OFFSET 0.30408573140000006 0.5104519199999995 0.1276382305
              }
            }
            JOINT rightEye
            {
              OFFSET -0.30409491089999996 0.5104519199999995 0.1276379445
              CHANNELS 3 Yrotation Xrotation Zrotation
              End Site
              {
                OFFSET -0.30409491089999996 0.5104519199999995 0.1276379445
              }
            }
            JOINT jaw
            {
              OFFSET -3.155239131000001e-7 -0.11984121820000082 0.60178107
              CHANNELS 3 Yrotation Xrotation Zrotation
              End Site
              {
                OFFSET -3.155239131000001e-7 -0.11984121820000082 0.60178107
              }
            }
          }
        }
        JOINT rightShoulder
        {
          OFFSET -0.1807303465 1.5087829790000005 0
          CHANNELS 3 Yrotation Xrotation Zrotation
          JOINT rightUpperArm
          {
            OFFSET -0.5985063796536958 0 0
            CHANNELS 3 Yrotation Xrotation Zrotation
            JOINT rightLowerArm
            {
              OFFSET -2.2993322059002854 0 0
              CHANNELS 3 Yrotation Xrotation Zrotation
              JOINT rightHand
              {
                OFFSET -2.395045314457259 0 0
                CHANNELS 3 Yrotation Xrotation Zrotation
                JOINT rightIndexProximal
                {
                  OFFSET -0.5764487688300002 0.0441371204405987 0.17361932004999997
                  CHANNELS 3 Yrotation Xrotation Zrotation
                  JOINT rightIndexIntermediate
                  {
                    OFFSET -0.29573011380000047 -0.01934826376999843 -0.007698921482999974
                    CHANNELS 3 Yrotation Xrotation Zrotation
                    JOINT rightIndexDistal
                    {
                      OFFSET -0.19008373999999884 -0.012503266380000655 -0.0026365778999999897
                      CHANNELS 3 Yrotation Xrotation Zrotation
                      End Site
                      {
                        OFFSET -0.19008373999999884 -0.012503266380000655 -0.0026365778999999897
                      }
                    }
                  }
                }
                JOINT rightMiddleProximal
                {
                  OFFSET -0.5834852037300005 0.05211639405060153 0.02307162440000001
                  CHANNELS 3 Yrotation Xrotation Zrotation
                  JOINT rightMiddleIntermediate
                  {
                    OFFSET -0.33880114510000003 -0.019952774050000954 0.0002455003561999819
                    CHANNELS 3 Yrotation Xrotation Zrotation
                    JOINT rightMiddleDistal
                    {
                      OFFSET -0.20675694929999955 -0.012273788999999091 0.00030209124000002766
                      CHANNELS 3 Yrotation Xrotation Zrotation
                      End Site
                      {
                        OFFSET -0.20675694929999955 -0.012273788999999091 0.00030209124000002766
                      }
                    }
                  }
                }
                JOINT rightLittleProximal
                {
                  OFFSET -0.5346811737299992 -0.011214256288399227 -0.24363941305000003
                  CHANNELS 3 Yrotation Xrotation Zrotation
                  JOINT rightLittleIntermediate
                  {
                    OFFSET -0.21757715980000092 -0.011771559690000988 0.01201554387
                    CHANNELS 3 Yrotation Xrotation Zrotation
                    JOINT rightLittleDistal
                    {
                      OFFSET -0.1475201849000004 -0.00822055339600003 0.006082065407000015
                      CHANNELS 3 Yrotation Xrotation Zrotation
                      End Site
                      {
                        OFFSET -0.1475201849000004 -0.00822055339600003 0.006082065407000015
                      }
                    }
                  }
                }
                JOINT rightRingProximal
                {
                  OFFSET -0.5800810755299999 0.027657985680600072 -0.12066365025000003
                  CHANNELS 3 Yrotation Xrotation Zrotation
                  JOINT rightRingIntermediate
                  {
                    OFFSET -0.26166445029999974 -0.013623118409999302 0.011164098990000045
                    CHANNELS 3 Yrotation Xrotation Zrotation
                    JOINT rightRingDistal
                    {
                      OFFSET -0.17666387530000027 -0.009072900100000503 0.005668185599999959
                      CHANNELS 3 Yrotation Xrotation Zrotation
                      End Site
                      {
                        OFFSET -0.17666387530000027 -0.009072900100000503 0.005668185599999959
                      }
                    }
                  }
                }
                JOINT rightThumbProximal
                {
                  OFFSET -0.10997596379000074 -0.09577489355940072 0.16989765924999997
                  CHANNELS 3 Yrotation Xrotation Zrotation
                  JOINT rightThumbIntermediate
                  {
                    OFFSET -0.31036620999999986 -0.08229339117999834 0.15440884469999996
                    CHANNELS 3 Yrotation Xrotation Zrotation
                    JOINT rightThumbDistal
                    {
                      OFFSET -0.21631306399999906 -0.08825326400000111 0.018656797720000014
                      CHANNELS 3 Yrotation Xrotation Zrotation
                      End Site
                      {
                        OFFSET -0.21631306399999906 -0.08825326400000111 0.018656797720000014
                      }
                    }
                  }
                }
              }
            }
          }
        }
      }
    }
  }
}
MOTION
Frames: 8
Frame Time: 0.03333333333333333
0 11.682712981546562 0 0 0 0 0 0 -5.826343164929014 -0.3712483961610101 -3.6333298826370974 5.838118207697276 0 0 0 0 0 0 0 0 5.826343164929014 0.3712483961610101 -3.6333298826370974 -5.838118207697276 0 0 0 0 0 0 0 -4.610651315171937 0 0 3.0831277533083026 0 0 0 0 0 1.5275236235667615 0 0 0 0 0 0 0 0 0 0 0 0 0 0 0 0 0 0 0 0 0 0 0 0 0 0 0 0 0 0 0 0 0 0 0 0 0 0 0 0 0 0 0 0 0 0 0 0 0 0 0 0 0 0 0 0 1.5275236235667615 0 0 0 0 0 0 0 0 0 0 0 0 0 0 1.5275236235667615 0 0 0 0 0 0 0 0 0 0 0 0 0 0 0 0 0 0 0 0 0 0 0 0 0 0 0 0 0 0 0 0 0 0 0 0 0 0 0 0 0 0 0 0 0 0 0 0 0 0 0 0 0 0 0
0.8945910728552167 4.788677181201541 0 0 -24.66743557283059 0 14.768313574929287 -23.943900479771816 5.70902390703343 3.446557288652083 30.504523510922073 6.766391275230607 -0.1960827892151359 6.665560307512192 1.6400509923167237 0 0 0 -14.76957133236575 -23.94449647830443 -5.710216769568811 -3.5846766861203454 31.497107084300644 -6.837532706316999 0 8.998895071132818 0 0 0 0 0.35132695888396204 19.054267341109767 0.13532794340760834 0 3.0831277533083026 0 0 0 0 0 1.5275236235667615 0 -24.888339368486616 -15.269226969185786 -7.434564060648768 -11.808925311549666 6.614579739758887 1.4180800315082516 0 0 -7.667511115392037 0 0 0 0 0 0 0 0 0 0 0 0 0 0 0 0 0 0 0 0 0 0 0 0 0 0 0 0 0 0 0 0 0 0 0 0 0 0 0 0 0 0 0 0 0 0 5.194043066824868 0 0 6.33250714360947 0 0 0 0 0 0 0 0 0 0 0 -1.806539636532607 0 25.040354287556806 1.958352127994052 -0.20686214168130565 10.878737381473664 -6.935725177990831 -0.4064953029575114 6.24435862539749 -3.3073810104743226 4.51566972237903 0 0 0 0 0 0 0 0 0 0 0 0 0 0 0 0 0 0 0 0 0 0 0 0 0 0 0 0 0 0 0 0 0 0 0 0 0 0 0 0 0 0 0 0 0
1.7891821457104333 -2.1053586191434803 0 0 -49.334867673449835 0 27.964292117071253 -49.87737369076349 12.237786494974229 12.288087249391216 64.38442541923818 13.580167079293775 -0.20053929504351287 13.33398955501657 3.2907456491007903 0 0 0 -27.96660114638885 -49.87892645143173 -12.239652361433585 -13.456909067479991 66.32343444544209 -14.642670455255688 0 17.99779034447077 0 0 0 0 0.9034089821359951 42.71613035341009 0.6599386753095338 0 3.0831277533083026 0 0 0 0 0 1.5275236235667615 0 -50.70844950456018 -32.21277679209911 -7.597103712284303 -23.694792230735615 13.378739852762052 1.446889240556119 0 0 -15.335022343020858 0 0 0 0 0 0 0 0 0 0 0 0 0 0 0 0 0 0 0 0 0 0 0 0 0 0 0 0 0 0 0 0 0 0 0 0 0 0 0 0 0 0 0 0 0 0 8.8605625088476 0 0 12.665015090605566 0 0 0 0 0 0 0 0 0 0 0 -5.140602911722698 0 50.11665064882771 3.8200018752743303 0.43599411508823455 22.046685250072848 -13.666355904153702 -2.15841850916932 12.242991817483654 -7.077261649725769 8.66813738624641 0 0 0 0 0 0 0 0 0 0 0 0 0 0 0 0 0 0 0 0 0 0 0 0 0 0 0 0 0 0 0 0 0 0 0 0 0 0 0 0 0 0 0 0 0
2.68377321856565 -8.999394419488503 0 0 -74.00230336176118 0 51.53488642288178 -76.16127442616651 5.302042971430469 148.32899724232206 79.00176688194338 147.85242503295433 -0.0011940051164009227 19.999688104086573 4.9994856534286685 0 0 0 -51.54149547852951 -76.16375897529437 -5.301074654629336 -155.11325672733102 76.37011880462165 -154.48270026675965 0 26.996685874906582 0 0 0 0 2.4822312581755033 66.36477378941548 2.3535489717255955 0 3.0831277533083026 0 0 0 0 0 1.5275236235667615 0 -83.40740773004647 -47.11861867707963 2.9682318905323175 -36.00281656028417 19.999015767320984 -0.003204219091984288 0 0 -23.00253360372056 0 0 0 0 0 0 0 0 0 0 0 0 0 0 0 0 0 0 0 0 0 0 0 0 0 0 0 0 0 0 0 0 0 0 0 0 0 0 0 0 0 0 0 0 0 0 12.527081611160419 0 0 18.99752136929611 0 0 0 0 0 0 0 0 0 0 0 -8.474666291380448 0 75.26913088478945 5.233195610196224 1.8117443023836712 33.815872022360054 -19.920817126214605 -5.320178050572279 18.01589505167435 -11.251294534085567 12.443467730456462 0 0 0 0 0 0 0 0 0 0 0 0 0 0 0 0 0 0 0 0 0 0 0 0 0 0 0 0 0 0 0 0 0 0 0 0 0 0 0 0 0 0 0 0 0
2.68377321856565 -8.999394419488503 0 0 -74.00230336176118 0 51.53489480735797 -76.16127442616651 5.302037970016746 148.32899724232206 79.00176688194338 147.85242503295433 -0.0011940051164009227 19.999688104086573 4.9994856534286685 0 0 0 -51.54149547852951 -76.16375897529437 -5.301074654629336 -155.11325672733102 76.37011880462165 -154.48270026675965 0 26.996685874906582 0 0 0 0 2.4822312581755033 66.36477378941548 2.3535489717255955 0 3.0831277533083026 0 0 0 0 0 1.5275236235667615 0 -83.40742402675723 -47.11862871435014 2.9682270851385617 -36.00281656028417 19.999015767320984 -0.003204219091984288 0 0 -23.00253360372056 0 0 0 0 0 0 0 0 0 0 0 0 0 0 0 0 0 0 0 0 0 0 0 0 0 0 0 0 0 0 0 0 0 0 0 0 0 0 0 0 0 0 0 0 0 0 12.527081611160419 0 0 18.99752136929611 0 0 0 0 0 0 0 0 0 0 0 -8.474666291380448 0 75.26913341514533 5.2331960388698775 1.8117440881539917 33.815872022360054 -19.920817126214605 -5.320178050572279 18.01589505167435 -11.251294534085567 12.443467730456462 0 0 0 0 0 0 0 0 0 0 0 0 0 0 0 0 0 0 0 0 0 0 0 0 0 0 0 0 0 0 0 0 0 0 0 0 0 0 0 0 0 0 0 0 0
2.68377321856565 -8.999394419488503 0 0 -74.00230336176118 0 51.53490039700985 -76.16127442616651 5.302033298439739 148.32899724232206 79.00176688194338 147.85242503295433 -0.0011940051164009227 19.999688104086573 4.9994856534286685 0 0 0 -51.54149547852951 -76.16375897529437 -5.301074654629336 -155.11325672733102 76.37011880462165 -154.48270026675965 0 26.996685874906582 0 0 0 0 2.4822312581755033 66.36477378941548 2.3535489717255955 0 3.0831277533083026 0 0 0 0 0 1.5275236235667615 0 -83.4074415228366 -47.11863373298609 2.968221966499124 -36.00281656028417 19.999015767320984 -0.003204219091984288 0 0 -23.00253360372056 0 0 0 0 0 0 0 0 0 0 0 0 0 0 0 0 0 0 0 0 0 0 0 0 0 0 0 0 0 0 0 0 0 0 0 0 0 0 0 0 0 0 0 0 0 0 12.527081611160419 0 0 18.99752136929611 0 0 0 0 0 0 0 0 0 0 0 -8.474666291380448 0 75.26913673181362 5.2331960388698775 1.8117436596946326 33.815872022360054 -19.920817126214605 -5.320178050572279 18.01589505167435 -11.251294534085567 12.443467730456462 0 0 0 0 0 0 0 0 0 0 0 0 0 0 0 0 0 0 0 0 0 0 0 0 0 0 0 0 0 0 0 0 0 0 0 0 0 0 0 0 0 0 0 0 0
2.68377321856565 -8.999394419488503 0 0 -74.00230336176118 0 51.534911001815935 -76.16127442616651 5.302028741295394 148.32899724232206 79.00176688194338 147.85242503295433 -0.0011940051164009227 19.999688104086573 4.9994856534286685 0 0 0 -51.54149547852951 -76.16375897529437 -5.301074654629336 -155.11325672733102 76.37011880462165 -154.48270026675965 0 26.996687791275253 0 0 0 0 2.4822312581755033 66.36477378941548 2.3535489717255955 0 3.0831277533083026 0 0 0 0 0 1.5275236235667615 0 -83.40745781955985 -47.11864377025943 2.968216847857843 -36.00281656028417 19.999017584443507 -0.003204219295226444 0 0 -23.00253360372056 0 0 0 0 0 0 0 0 0 0 0 0 0 0 0 0 0 0 0 0 0 0 0 0 0 0 0 0 0 0 0 0 0 0 0 0 0 0 0 0 0 0 0 0 0 0 12.527081611160419 0 0 18.99752136929611 0 0 0 0 0 0 0 0 0 0 0 -8.474666291380448 0 75.2691383901478 5.233196467543532 1.811743445464953 33.815872022360054 -19.920817126214605 -5.320178050572279 18.01589505167435 -11.251294534085567 12.443467730456462 0 0 0 0 0 0 0 0 0 0 0 0 0 0 0 0 0 0 0 0 0 0 0 0 0 0 0 0 0 0 0 0 0 0 0 0 0 0 0 0 0 0 0 0 0
2.68377321856565 -8.999394419488503 0 0 -74.00230336176118 0 51.53490039700985 -76.16127442616651 5.302033298439739 148.32899724232206 79.00176688194338 147.85242503295433 -0.0011940051164009227 19.999688104086573 4.9994856534286685 0 0 0 -51.54149547852951 -76.16375897529437 -5.301074654629336 -155.11325672733102 76.37011880462165 -154.48270026675965 0 26.996685874906582 0 0 0 0 2.482230460333405 66.36477378941548 2.353548173807854 0 3.0831277533083026 0 0 0 0 0 1.5275236235667615 0 -83.4074333274771 -47.11862871435014 2.9682245791873854 -36.00281362022313 19.999017584443507 -0.0032038646102889984 0 0 -23.00253360372056 0 0 0 0 0 0 0 0 0 0 0 0 0 0 0 0 0 0 0 0 0 0 0 0 0 0 0 0 0 0 0 0 0 0 0 0 0 0 0 0 0 0 0 0 0 0 12.527081611160419 0 0 18.99752136929611 0 0 0 0 0 0 0 0 0 0 0 -8.474666291380448 0 75.26913673181362 5.2331960388698775 1.8117436596946326 33.815870000811294 -19.920815309992577 -5.320177598472786 18.01589505167435 -11.251294534085567 12.443467730456462 0 0 0 0 0 0 0 0 0 0 0 0 0 0 0 0 0 0 0 0 0 0 0 0 0 0 0 0 0 0 0 0 0 0 0 0 0 0 0 0 0 0 0 0 0
